<svg width="320" height="77" viewBox="0 0 320 77" fill="none" xmlns="http://www.w3.org/2000/svg">
<g clip-path="url(#clip0)">
<path fill-rule="evenodd" clip-rule="evenodd" d="M270.727 5.36243H260.669L260.67 61.8396H270.727V5.36243Z" fill="#201547"/>
<path fill-rule="evenodd" clip-rule="evenodd" d="M289.01 37.9339C289.938 31.8212 294.116 27.9538 300.072 27.9538C306.34 27.9538 310.441 31.8212 310.672 37.9339H289.01ZM299.995 20.1395C287.616 20.1395 278.952 28.6501 278.952 41.2614C278.952 53.7163 287.385 62.2269 300.229 62.2269C307.5 62.2269 313.534 59.5957 317.636 55.1089L312.219 49.4617C309.28 52.4777 305.333 54.1023 301.079 54.1023C295.043 54.1023 290.556 50.5452 289.241 44.6646H319.801C320.806 29.6566 314.539 20.1395 299.995 20.1395Z" fill="#201547"/>
<path fill-rule="evenodd" clip-rule="evenodd" d="M86.7512 20.0627C80.0204 20.1384 74.8362 22.6915 71.8971 28.1848V20.4487H61.8389V61.8398H71.8971V41.4936C71.8971 34.6847 75.9197 29.6568 82.7286 29.5786C88.454 29.5786 91.9342 33.137 91.9342 38.9406V61.8398H102.069V36.0003C102.069 26.1753 96.2671 20.0627 86.7512 20.0627Z" fill="#201547"/>
<path fill-rule="evenodd" clip-rule="evenodd" d="M111.217 61.8399H121.274V20.4488H111.217V61.8399Z" fill="#201547"/>
<path fill-rule="evenodd" clip-rule="evenodd" d="M184.655 20.0627C177.382 20.1384 171.966 23.2351 169.259 29.9646C167.324 23.6993 162.296 20.0627 155.023 20.0627C148.446 20.1384 143.341 22.6157 140.479 28.1078V20.4487H130.422V61.8398H140.479V41.4154C140.479 34.6847 144.425 29.7325 151.001 29.5016C156.571 29.5016 159.975 33.06 159.975 38.9406V61.8398H170.11V41.4154C170.11 34.6847 174.055 29.7325 180.555 29.5016C186.124 29.5016 189.606 33.06 189.606 38.9406V61.8398H199.743V36.0003C199.743 26.1753 194.016 20.0627 184.655 20.0627Z" fill="#201547"/>
<path fill-rule="evenodd" clip-rule="evenodd" d="M230.628 53.5624C223.742 53.5624 218.947 48.4551 218.947 41.0281C218.947 33.7562 223.742 28.5731 230.628 28.5731C237.436 28.5731 242.233 33.7562 242.233 41.0281C242.233 48.3781 237.436 53.5624 230.628 53.5624ZM232.872 20.1395C226.684 20.1395 221.886 22.6926 218.947 27.2575V5.36243H208.888V61.8396H218.947V55.1089C221.964 59.6738 226.76 62.2269 233.026 62.2269C244.787 62.2269 252.445 53.7933 252.445 41.3371C252.445 28.6501 244.554 20.1395 232.872 20.1395Z" fill="#201547"/>
<path fill-rule="evenodd" clip-rule="evenodd" d="M111.217 15.4197H121.274V5.36267H111.217V15.4197Z" fill="#E20041"/>
<path fill-rule="evenodd" clip-rule="evenodd" d="M0 30.92H15.46V15.4601H0V30.92Z" fill="#F14321"/>
<path fill-rule="evenodd" clip-rule="evenodd" d="M15.46 15.4603L30.9199 30.9203H15.46V15.4603Z" fill="#F86410"/>
<path fill-rule="evenodd" clip-rule="evenodd" d="M0 46.3812H15.46V30.9213H0V46.3812Z" fill="#E92131"/>
<path fill-rule="evenodd" clip-rule="evenodd" d="M0 77.1322H15.46V61.2521H0V77.1322Z" fill="#E20041"/>
<path fill-rule="evenodd" clip-rule="evenodd" d="M15.46 46.3812H30.9199V30.9213H15.46V46.3812Z" fill="#F14321"/>
<path fill-rule="evenodd" clip-rule="evenodd" d="M30.9199 46.3812H46.3787V30.9213H30.9199V46.3812Z" fill="#F86410"/>
<path fill-rule="evenodd" clip-rule="evenodd" d="M30.9199 15.8802H46.3787V0H30.9199V15.8802Z" fill="#FF8500"/>
<path fill-rule="evenodd" clip-rule="evenodd" d="M15.46 46.3811H30.9199V61.8398L15.46 46.3811Z" fill="#E92131"/>
<path fill-rule="evenodd" clip-rule="evenodd" d="M30.9199 61.8398H46.3787V46.3811H30.9199V61.8398Z" fill="#F14321"/>
</g>
<defs>
<clipPath id="clip0">
<rect width="320" height="76.7367" fill="white"/>
</clipPath>
</defs>
</svg>
